<svg id="Capa_1" enable-background="new 0 0 512 512" height="512" viewBox="0 0 512 512" width="512" xmlns="http://www.w3.org/2000/svg"><g><path d="m410.427 175.599c-1.934-3.598-6.419-4.914-10.112-3.167-3.101 1.467-6.556 2.298-10.22 2.298-6.351 0-12.083-2.487-16.422-6.466-.87 12.676-11.317 22.72-24.213 22.72-10.501 0-19.373-6.675-22.804-15.984-4.889 5.275-12.02 8.439-19.93 7.768-8.996-.764-16.74-7.037-20.347-15.314-2.773-6.362-2.254-12.135-.393-17.26-.52.033-1.013.155-1.541.155-13.465 0-24.381-10.916-24.381-24.381 0-7.066 3.054-13.378 7.857-17.831-7.148-2.635-12.726-8.482-14.931-15.809-1.113-3.698-4.359-6.44-8.206-6.098-37.44 3.33-71.412 18.712-97.975 42.25-37.8 33.493-50.762 83.498-47.213 138.78 5.472 85.228 65.685 147.48 150.963 152.103 55.129 2.989 104.95-13.156 138.156-51.217 26.166-29.992 42.015-69.218 42.015-112.146 0-29.114-7.424-56.435-20.303-80.401z" fill="#eceaec"/><path d="m365.714 256c0-25.028-8.748-47.988-23.293-66.09-7.302-2.222-13.136-7.777-15.765-14.91-4.889 5.274-12.02 8.439-19.93 7.767-8.997-.763-16.74-7.037-20.347-15.313-2.203-5.056-2.283-9.721-1.308-14.003-8.031-1.953-16.375-3.102-25.007-3.102-58.349 0-105.651 47.302-105.651 105.651s47.302 105.651 105.651 105.651 105.65-47.302 105.65-105.651z" fill="#dbd8db"/><path d="m266.813 410.155c-85.279-4.623-155.328-73.921-160.801-159.149-3.01-46.877 12.834-90.088 40.796-122.526-37.793 33.493-60.599 83.503-57.05 138.78 5.473 85.228 75.522 154.526 160.801 159.148 55.083 2.986 104.95-20.258 138.155-58.262-32.21 28.178-75.19 44.541-121.901 42.009z" fill="#dbd8db"/><path d="m495.746 426.667 5.659-16.254v-121.905l-21.913-16.254v138.159c0 8.977 7.277 16.254 16.254 16.254z" fill="#c9c5c9"/><path d="m24.381 190.984v219.429c0 8.977 7.277 16.254 16.254 16.254l7.269-16.254v-219.429z" fill="#c9c5c9"/><g fill="#dbd8db"><path d="m73.143 85.333c-4.492 0-8.127 3.639-8.127 8.127v65.016c0 4.488-3.638 8.127-8.127 8.127s-8.127-3.639-8.127-8.127v-65.016c0-4.489-3.638-8.127-8.127-8.127s-8.127 3.638-8.127 8.127v65.016c0 4.488-3.638 8.127-8.127 8.127s-8.127-3.639-8.127-8.127v-65.016c0-4.488-3.635-8.127-8.127-8.127s-8.127 3.639-8.127 8.127v81.27c0 13.465 10.916 24.381 24.381 24.381 8.977 0 16.254 7.277 16.254 16.254v211.302c8.977 0 16.254-7.277 16.254-16.254v-211.302c13.465 0 24.381-10.916 24.381-24.381v-81.27c0-4.488-3.635-8.127-8.127-8.127z"/><path d="m463.238 134.095v146.286c0 4.488 3.639 8.127 8.127 8.127h8.127c8.977 0 16.254 7.277 16.254 16.254v121.905c8.977 0 16.254-7.277 16.254-16.254v-325.08c-26.931 0-48.762 21.832-48.762 48.762z"/></g></g></svg>